<svg xmlns="http://www.w3.org/2000/svg" width="1600" height="980" viewBox="0 0 1600 980">
  <defs>
    <linearGradient id="sky" x1="0" y1="0" x2="0" y2="1">
      <stop offset="0" stop-color="#07111d"/>
      <stop offset="0.55" stop-color="#172a31"/>
      <stop offset="1" stop-color="#07090c"/>
    </linearGradient>
    <linearGradient id="glow" x1="0" y1="0" x2="1" y2="1">
      <stop offset="0" stop-color="#f2d09b"/>
      <stop offset="0.48" stop-color="#f7f2df"/>
      <stop offset="1" stop-color="#26381f"/>
    </linearGradient>
    <filter id="grain">
      <feTurbulence type="fractalNoise" baseFrequency="0.92" numOctaves="3" stitchTiles="stitch"/>
      <feColorMatrix type="saturate" values="0"/>
      <feComponentTransfer>
        <feFuncA type="table" tableValues="0 0.13"/>
      </feComponentTransfer>
      <feBlend mode="screen" in2="SourceGraphic"/>
    </filter>
    <filter id="softShadow" x="-20%" y="-20%" width="140%" height="140%">
      <feDropShadow dx="0" dy="22" stdDeviation="22" flood-color="#000000" flood-opacity="0.45"/>
    </filter>
    <style>
      .bg{fill:#0b0b0a}
      .card{fill:#0e0f0d;stroke:#2a2b27;stroke-width:2}
      .line{stroke:#d8d6cc;stroke-width:1.5;opacity:.58}
      .micro{font:500 16px Inter,Arial,sans-serif;fill:#d8d6cc;letter-spacing:.5px}
      .tiny{font:400 12px Inter,Arial,sans-serif;fill:#c8c6bc;opacity:.76}
      .title{font:800 66px Inter,Arial,sans-serif;fill:#f3f1e8;letter-spacing:-1px}
      .serif{font:400 70px Georgia,'Times New Roman',serif;fill:#f4f0df;letter-spacing:-1px}
      .caption{font:700 22px Inter,Arial,sans-serif;fill:#f1efe4}
      .label{font:500 15px Inter,Arial,sans-serif;fill:#a8a59a}
    </style>
  </defs>
  <rect class="bg" width="1600" height="980"/>
  <rect width="1600" height="980" filter="url(#grain)" opacity=".55"/>
  <text x="70" y="72" class="micro">LINGJING PRESENTATION STYLE BOARD</text>
  <text x="70" y="122" class="label">black editorial / cinematic landscape / oversized title / fine information grid / restrained warm light</text>

  <g transform="translate(70 170)" filter="url(#softShadow)">
    <rect class="card" width="690" height="390" rx="22"/>
    <rect x="18" y="18" width="654" height="354" rx="15" fill="url(#sky)"/>
    <path d="M18 242 C150 185 260 230 355 180 C460 125 530 200 672 155 L672 372 L18 372Z" fill="#132018"/>
    <path d="M18 270 C140 218 255 270 350 222 C475 158 555 230 672 195 L672 372 L18 372Z" fill="#22351f" opacity=".8"/>
    <path d="M65 114 C82 40 148 32 171 106 C204 58 279 66 277 150 C320 132 364 154 370 203 L56 203 C48 163 48 136 65 114Z" fill="#f1bf8a" opacity=".78"/>
    <path d="M520 86 C546 12 610 32 620 102 C654 84 684 102 672 166 L482 166 C476 125 494 95 520 86Z" fill="#f1c18c" opacity=".7"/>
    <line x1="270" y1="86" x2="325" y2="124" stroke="#b9d8ef" opacity=".8"/>
    <text x="52" y="270" class="caption">MENU</text>
    <line x1="52" y1="286" x2="368" y2="286" class="line"/>
    <text x="52" y="316" class="tiny">Home  Services  Work  About</text>
    <text x="388" y="270" class="caption">SOCIALS</text>
    <line x1="388" y1="286" x2="545" y2="286" class="line"/>
    <text x="388" y="316" class="tiny">X  Instagram  LinkedIn</text>
    <text x="48" y="389" font-family="Inter,Arial,sans-serif" font-size="132" font-weight="900" fill="#f3f1e8" opacity=".72">SUKOYA</text>
  </g>

  <g transform="translate(805 170)" filter="url(#softShadow)">
    <rect class="card" width="360" height="390"/>
    <rect x="54" y="54" width="252" height="205" fill="#d9ddd5"/>
    <path d="M54 230 C112 174 164 224 217 158 C257 110 287 151 306 122 L306 259 L54 259Z" fill="#23301d"/>
    <path d="M84 112 L176 82 L260 112 L220 158 L126 158Z" fill="#f4f3ed"/>
    <path d="M110 116 L177 94 L238 116" fill="none" stroke="#111" stroke-width="5"/>
    <path d="M54 203 C94 168 154 180 196 203 C230 224 263 205 306 181 L306 259 L54 259Z" fill="#70a340" opacity=".7"/>
    <text x="54" y="310" class="title" font-size="48">HAGIWARA</text>
    <text x="56" y="344" class="caption">TEA GARDEN DRIVE</text>
    <text x="58" y="372" class="tiny">JAPANESE TEA GARDEN  +  MICRO COPY</text>
  </g>

  <g transform="translate(1210 170)" filter="url(#softShadow)">
    <rect class="card" width="320" height="390"/>
    <text x="108" y="42" class="tiny">PRESENTATION DESIGN</text>
    <rect x="32" y="92" width="256" height="105" fill="#d2d4d0" opacity=".78"/>
    <path d="M32 171 C104 110 178 200 288 132 L288 197 L32 197Z" fill="#101010"/>
    <text x="95" y="154" class="micro" font-size="18">SIGNATURE EDITION</text>
    <text x="42" y="184" class="tiny">Premium Protection.</text>
    <rect x="32" y="225" width="256" height="105" fill="#b7bab5" opacity=".78"/>
    <path d="M32 299 C78 224 134 324 194 250 C231 207 262 260 288 232 L288 330 L32 330Z" fill="#0d0d0d"/>
    <text x="92" y="286" class="micro" font-size="18">SIGNATURE INFINITY</text>
    <text x="42" y="318" class="tiny">Unlimited Confidence.</text>
  </g>

  <g transform="translate(70 610)" filter="url(#softShadow)">
    <rect class="card" width="570" height="260"/>
    <rect x="18" y="18" width="534" height="224" fill="#142011"/>
    <path d="M18 212 C95 145 138 181 175 118 C226 38 282 108 304 76 C366 0 431 70 552 30 L552 242 L18 242Z" fill="#22351d"/>
    <path d="M240 98 L295 70 L335 100 L335 185 L242 185Z" fill="#9e9480"/>
    <path d="M255 112 L294 91 L323 112" fill="none" stroke="#d7d0bd" stroke-width="4"/>
    <text x="40" y="120" class="tiny">UNIQUE STAYS 002</text>
    <text x="40" y="170" class="serif" font-size="54">LOST IN</text>
    <text x="40" y="222" class="serif" font-size="54">THE WOODS</text>
    <line x1="368" y1="170" x2="470" y2="170" class="line"/>
    <text x="380" y="150" class="tiny">A collection of cinematic scenes</text>
    <text x="380" y="188" class="tiny">small captions, wide breathing room</text>
  </g>

  <g transform="translate(690 610)" filter="url(#softShadow)">
    <rect class="card" width="840" height="260" rx="26"/>
    <rect x="16" y="16" width="808" height="228" rx="18" fill="#18230f"/>
    <path d="M115 160 C230 60 390 166 525 84 C630 21 728 65 824 35 L824 244 L16 244 L16 192Z" fill="#31451e"/>
    <path d="M312 34 C390 40 470 74 510 121 C564 183 654 158 824 92 L824 16 L312 16Z" fill="url(#glow)" opacity=".78"/>
    <circle cx="410" cy="126" r="19" fill="#17140f"/>
    <line x1="421" y1="134" x2="468" y2="168" stroke="#ffffff" stroke-width="4" opacity=".72"/>
    <text x="44" y="226" font-family="Inter,Arial,sans-serif" font-size="126" font-weight="500" fill="#f5f5ec" letter-spacing="-4">Neutrals</text>
    <text x="605" y="118" class="caption" font-size="20">Enter the Future.</text>
    <text x="605" y="194" class="tiny">Large word as landscape, not as decoration.</text>
  </g>
</svg>
